<?xml version="1.0" encoding="UTF-8"?>
<svg xmlns="http://www.w3.org/2000/svg" xmlns:xlink="http://www.w3.org/1999/xlink" width="48px" height="48px" viewBox="0 0 48 48" version="1.1">
<g id="surface1">
<path style=" stroke:none;fill-rule:nonzero;fill:rgb(85.09804%,9.803922%,12.54902%);fill-opacity:1;" d="M 24.835938 41.496094 C 23.929688 41.363281 22.886719 41.039062 22.0625 40.53125 C 21.90625 40.441406 21.265625 39.953125 21.105469 39.789062 C 18.234375 37.011719 16.234375 30.9375 16.234375 23.894531 C 16.234375 14.234375 19.992188 6.359375 24.613281 6.359375 C 29.191406 6.359375 32.925781 14.09375 32.988281 23.648438 L 36.015625 23.648438 C 35.953125 10.605469 30.863281 0.0390625 24.613281 0.0390625 C 18.328125 0.0390625 13.210938 10.738281 13.210938 23.894531 C 13.210938 32.96875 15.648438 40.859375 19.21875 44.886719 C 19.863281 45.601562 20.785156 46.335938 21.101562 46.53125 C 22.117188 47.167969 23.367188 47.59375 24.480469 47.761719 C 24.855469 47.828125 26.175781 47.863281 26.558594 47.863281 L 47.402344 47.863281 L 47.402344 41.550781 L 26.59375 41.550781 C 26.316406 41.550781 25.109375 41.535156 24.835938 41.496094 M 26.59375 31.589844 C 26.375 31.589844 25.222656 31.574219 25.011719 31.53125 C 24.648438 31.476562 24.128906 31.363281 23.792969 31.199219 C 23.414062 30.988281 23.058594 30.710938 22.898438 30.523438 C 21.773438 29.25 21.007812 26.761719 21.007812 23.894531 C 21.007812 19.726562 22.621094 16.34375 24.613281 16.34375 C 26.566406 16.34375 28.152344 19.589844 28.214844 23.648438 L 31.125 23.648438 C 31.0625 16.238281 28.171875 10.261719 24.613281 10.261719 C 21.011719 10.261719 18.097656 16.363281 18.097656 23.894531 C 18.097656 29.210938 19.550781 33.789062 21.667969 36.039062 C 21.996094 36.441406 22.609375 36.855469 22.785156 36.953125 C 23.382812 37.28125 24.183594 37.507812 24.835938 37.605469 C 25.078125 37.648438 26.257812 37.664062 26.507812 37.671875 L 26.507812 37.679688 L 47.402344 37.679688 L 47.402344 31.589844 Z M 11.34375 47.835938 L 8.296875 47.835938 L 8.296875 6.375 L 3.84375 6.375 L 3.84375 0 L 11.34375 0 Z M 0.5 9.5625 L 0.5 15.691406 L 3.84375 15.691406 L 3.84375 47.835938 L 6.773438 47.835938 L 6.773438 9.5625 Z M 0.5 9.5625 "/>
<path style=" stroke:none;fill-rule:nonzero;fill:rgb(85.09804%,9.803922%,12.54902%);fill-opacity:1;" d="M 42.019531 0.449219 C 40.921875 0.449219 40.011719 2.273438 40.011719 4.574219 C 40.011719 6.871094 40.921875 8.78125 42.019531 8.78125 C 43.148438 8.78125 44.023438 6.871094 44.023438 4.574219 C 44.023438 2.273438 43.148438 0.449219 42.019531 0.449219 M 42.019531 8.09375 C 41.113281 8.09375 40.332031 6.613281 40.332031 4.574219 C 40.332031 2.640625 41.113281 1.117188 42.019531 1.117188 C 42.921875 1.117188 43.699219 2.640625 43.699219 4.574219 C 43.699219 6.613281 42.921875 8.09375 42.019531 8.09375 "/>
<path style=" stroke:none;fill-rule:nonzero;fill:rgb(85.09804%,9.803922%,12.54902%);fill-opacity:1;" d="M 42.78125 5.707031 C 42.78125 5.242188 42.75 4.808594 42.496094 4.636719 C 42.8125 4.410156 42.84375 3.976562 42.84375 3.710938 C 42.84375 2.640625 42.382812 2.511719 42.191406 2.511719 L 41.316406 2.511719 L 41.316406 6.636719 L 41.683594 6.636719 L 41.683594 4.941406 L 41.96875 4.941406 C 42.382812 4.941406 42.417969 5.339844 42.417969 5.707031 C 42.417969 6.40625 42.417969 6.546875 42.496094 6.636719 L 42.859375 6.636719 C 42.78125 6.472656 42.8125 6.34375 42.78125 5.707031 M 42.113281 4.34375 L 41.683594 4.34375 L 41.683594 3.039062 L 42.050781 3.039062 C 42.304688 3.039062 42.480469 3.210938 42.480469 3.710938 C 42.480469 3.976562 42.417969 4.34375 42.113281 4.34375 "/>
</g>
</svg>
