<?xml version="1.0" encoding="utf-8"?>
<!-- Generator: Adobe Illustrator 28.0.0, SVG Export Plug-In . SVG Version: 6.00 Build 0)  -->
<svg version="1.1" id="Слой_1" xmlns="http://www.w3.org/2000/svg" xmlns:xlink="http://www.w3.org/1999/xlink" x="0px" y="0px"
	 viewBox="0 0 253.8 82.8" style="enable-background:new 0 0 253.8 82.8;" xml:space="preserve">
<style type="text/css">
	.st0{fill:#0079C0;}
</style>
<g>
	<path class="st0" d="M14.3,62.3h3.6l2.2-8.4h9.2l2.4,8.4h3.6L26.9,33h-4.3L14.3,62.3z M24.7,35.4L28.5,51h-7.7L24.7,35.4L24.7,35.4
		z"/>
	<path class="st0" d="M37.7,53c0,6.3,3.1,10,8.7,10c5.6,0,9-2.8,9-8.3c0-3.9-1.9-6.6-6.6-8.4l-4.7-1.7c-1.9-0.7-2.6-1.9-2.6-4.6
		c0-2.4,1.2-4.6,4.8-4.6c3.3,0,4.8,2.1,4.8,5.4h3.3c-0.2-5.4-3.3-8.3-8.3-8.3c-4.8,0-8,2.9-8,7.6c0,4.6,2,6.7,4.7,7.7l4.3,1.6
		c3,1.1,4.8,2.1,4.8,5.9c0,3.5-2.3,4.9-5.6,4.9c-4.3,0-5.5-2.7-5.5-7l0,0H37.7z"/>
	<polygon class="st0" points="75.6,33 57.2,33 57.2,36 64.8,36 64.8,62.3 68,62.3 68,36 75.6,36 	"/>
	<path class="st0" d="M91.4,47.8L91.4,47.8c3.4-0.6,5.3-3.5,5.3-6.8c0-5.5-3.4-8-8.5-8h-8.9v29.3h3.3V49.4h5.3
		c3.6,0,5.4,2.2,5.4,6.1c0,3.2,0.3,4.9,0.9,6.8h3.3v-0.7c-0.4-0.9-1-1.1-1-7.2C96.4,50.9,94.5,48.2,91.4,47.8z M82.5,46.5V36H88
		c2.9,0,5.3,0.9,5.3,5.2c0,4.3-2.9,5.4-5.1,5.4H82.5z"/>
	<path class="st0" d="M109.1,33l-8.3,29.3h3.6l2.2-8.4h9.2l2.3,8.4h3.6L113.4,33H109.1z M107.3,51l3.9-15.6h0.1L115,51H107.3z"/>
	<polygon class="st0" points="137,33 137,62.3 152.2,62.3 152.2,59.4 140.3,59.4 140.3,33 	"/>
	<rect x="156.2" y="33" class="st0" width="3.3" height="29.3"/>
	<path class="st0" d="M179,57l-8.3-24h-5.3v29.3h3.3V39c0-1.5,0-3-0.1-4.5h0.1c0.2,1.5,0.6,3,1.1,4.4l8.2,23.5h5.4V33H180V57
		c0,1.1,0.1,2.2,0.1,3.3H180C179.6,58.9,179.4,58,179,57z"/>
	<path class="st0" d="M189.2,33v22.3c0,5.2,3.5,7.7,8.8,7.7c5.3,0,8.8-2.5,8.8-7.7V33h-3.3v21.1c0,2.3-0.3,6-5.5,6
		c-5.2,0-5.5-3.7-5.5-6V33H189.2z"/>
	<polygon class="st0" points="214.6,62.3 220.9,50.1 227.2,62.3 230.9,62.3 222.9,47.3 230.7,33 227.1,33 221,44.5 214.8,33 
		211.2,33 219.1,47.3 211,62.3 	"/>
	<path class="st0" d="M239.3,15.4H138.6c-0.9,0-1.7,0.7-1.7,1.6c0,0.9,0.7,1.7,1.6,1.7h100.8c6.2,0,11.2,5,11.2,11.2v0v34.6
		c0,6.2-5,11.2-11.2,11.2h-61.9c-0.9,0-1.6,0.7-1.6,1.6s0.7,1.6,1.6,1.6h61.9c8,0,14.5-6.5,14.5-14.5V29.9
		C253.8,21.9,247.3,15.4,239.3,15.4z"/>
	<path class="st0" d="M80.3,75.6H14.5c-6.2,0-11.2-5-11.2-11.2V29.9c0-6.2,5-11.2,11.2-11.2h100.9c0.9,0,1.7-0.8,1.6-1.7
		c0-0.9-0.8-1.6-1.7-1.6H14.5C6.5,15.4,0,21.9,0,29.9v34.6c0,8,6.5,14.5,14.5,14.5c0,0,0,0,0,0h65.8c0.9,0,1.6-0.7,1.6-1.6
		C81.9,76.3,81.2,75.6,80.3,75.6z"/>
	<path class="st0" d="M138.4,11.3l1.2-1.2L131,8.6l-3.3-6.9L126.9,0l-4.1,8.6l-8.6,1.5l6.2,6.7l-1.4,9.5l7.9-4.4l7.9,4.4l-1.4-9.5
		L138.4,11.3z M133.5,24.3l-6.6-3.6l-6.6,3.6l1.2-7.9l-5.1-5.6l7.2-1.2l3.4-7.1l3.4,7.1l7.2,1.2l-5.1,5.6L133.5,24.3z"/>
	<polygon class="st0" points="127.9,11.4 131.7,17.5 131.5,16.1 132.7,14.8 131.1,11 133.1,14.4 135.9,11.3 129.8,10.2 126.9,4.2 
		124.1,10.2 117.9,11.3 122.3,16.1 122.1,17.8 124.4,21.1 125.5,20.5 121.5,12.3 126.7,19.8 126.9,19.7 128.7,20.7 124.7,11.9 
		131.6,22.3 132.5,22.8 132.3,21.8 	"/>
	<polygon class="st0" points="121.3,22.8 123,21.9 121.8,19.5 	"/>
	<path class="st0" d="M95.7,73.1c-0.4-0.5-1-0.8-1.8-1.1c-0.7-0.2-1.6-0.3-2.6-0.3h-3.4h-0.2v0.2v10.7v0.2h0.2h3.2
		c3.9,0,5.9-1.9,5.9-5.8c0-0.8-0.1-1.6-0.3-2.3C96.5,74.1,96.2,73.5,95.7,73.1z M94.8,78.9c-0.1,0.5-0.4,0.9-0.7,1.2
		c-0.3,0.3-0.7,0.6-1.2,0.7c-0.5,0.2-1.2,0.3-2,0.3h-1.4v-7.7h1.6c0.8,0,1.4,0.1,1.9,0.2c0.5,0.1,0.9,0.4,1.2,0.6
		c0.3,0.3,0.5,0.7,0.6,1.1c0.1,0.5,0.2,1.1,0.2,1.8C95,77.8,95,78.4,94.8,78.9z"/>
	<polygon class="st0" points="101.6,71.7 101.4,71.7 101.4,71.9 101.4,82.6 101.4,82.8 101.6,82.8 107.9,82.8 108.2,82.8 
		108.2,82.6 108.2,81.3 108.2,81.1 107.9,81.1 103.2,81.1 103.2,77.9 107.5,77.9 107.7,77.9 107.7,77.7 107.7,76.4 107.7,76.2 
		107.5,76.2 103.2,76.2 103.2,73.4 107.9,73.4 108.2,73.4 108.2,73.2 108.2,71.9 108.2,71.7 107.9,71.7 	"/>
	<path class="st0" d="M119.4,77.7c-0.2-0.3-0.5-0.5-0.8-0.7c-0.3-0.2-0.8-0.4-1.2-0.6l-0.4-0.2c-0.4-0.2-0.8-0.3-1.1-0.5
		c-0.3-0.1-0.5-0.3-0.6-0.4c-0.1-0.1-0.2-0.3-0.3-0.4c-0.1-0.1-0.1-0.3-0.1-0.5c0-0.5,0.2-1.2,1.9-1.2c0.4,0,0.9,0,1.3,0.1
		c0.4,0.1,0.8,0.2,1.1,0.3l0.3,0.1v-0.3v-1.3V72l-0.1-0.1c-0.3-0.1-0.7-0.2-1.1-0.3c-0.4-0.1-0.9-0.1-1.3-0.1
		c-1.2,0-2.1,0.3-2.8,0.8c-0.7,0.5-1.1,1.3-1.1,2.2c0,0.4,0.1,0.8,0.2,1.1c0.1,0.3,0.3,0.6,0.5,0.9c0.2,0.2,0.5,0.5,0.8,0.6
		c0.3,0.2,0.7,0.3,1.1,0.5l0.4,0.1c0.4,0.1,0.7,0.3,1,0.4c0.3,0.1,0.5,0.2,0.7,0.4c0.2,0.1,0.3,0.3,0.3,0.5c0.1,0.2,0.1,0.4,0.1,0.7
		c0,0.5-0.2,0.9-0.5,1.1c-0.3,0.3-0.9,0.4-1.6,0.4c-0.3,0-0.5,0-0.8-0.1c-0.3,0-0.5-0.1-0.7-0.2c-0.2-0.1-0.4-0.1-0.6-0.2
		c-0.2-0.1-0.3-0.2-0.5-0.2l-0.4-0.2v0.4v1.4v0.1l0.1,0.1c0.4,0.2,0.8,0.4,1.3,0.5c0.5,0.1,1,0.2,1.6,0.2c0.6,0,1.1-0.1,1.6-0.2
		c0.5-0.1,0.9-0.4,1.2-0.6c0.3-0.3,0.6-0.6,0.8-1.1c0.2-0.4,0.3-0.9,0.3-1.4c0-0.4,0-0.7-0.1-1C119.8,78.3,119.6,78,119.4,77.7z"/>
	<polygon class="st0" points="127.7,76.9 132.8,72.1 133.2,71.7 132.6,71.7 130.7,71.7 126.1,76.2 126.1,71.9 126.1,71.7 
		125.9,71.7 124.5,71.7 124.3,71.7 124.3,71.9 124.3,82.6 124.3,82.8 124.5,82.8 125.9,82.8 126.1,82.8 126.1,82.6 126.1,77.8 
		130.8,82.8 130.9,82.8 131,82.8 132.9,82.8 133.5,82.8 133.1,82.4 	"/>
	<polygon class="st0" points="135.9,73.4 139.2,73.4 139.2,82.8 141.1,82.8 141.1,73.4 144.4,73.4 144.4,71.7 135.9,71.7 	"/>
	<path class="st0" d="M156.7,73c-0.4-0.5-1-0.9-1.7-1.1c-0.6-0.3-1.4-0.4-2.2-0.4c-0.8,0-1.5,0.1-2.2,0.4c-0.7,0.3-1.2,0.6-1.7,1.1
		c-0.4,0.5-0.8,1.1-1,1.8c-0.2,0.7-0.3,1.5-0.3,2.4c0,0.9,0.1,1.7,0.3,2.4c0.2,0.7,0.6,1.3,1,1.8c0.4,0.5,1,0.9,1.7,1.1
		c0.6,0.3,1.4,0.4,2.2,0.4c0.8,0,1.5-0.1,2.2-0.4c0.7-0.3,1.2-0.6,1.7-1.1c0.4-0.5,0.8-1.1,1-1.8c0.2-0.7,0.3-1.5,0.3-2.4
		c0-0.9-0.1-1.7-0.3-2.4C157.5,74.1,157.2,73.5,156.7,73z M155.4,80.3c-0.6,0.7-1.4,1-2.5,1c-1.1,0-1.9-0.3-2.4-1
		c-0.6-0.7-0.9-1.7-0.9-3c0-1.4,0.3-2.4,0.8-3.1c0.5-0.6,1.4-0.9,2.5-0.9c1.1,0,2,0.3,2.5,1c0.5,0.6,0.8,1.7,0.8,3.1
		C156.2,78.6,155.9,79.6,155.4,80.3z"/>
	<path class="st0" d="M169,72.5c-0.7-0.6-1.7-0.8-3-0.8h-3.5v11.2h1.9v-3.9h1.5c1.4,0,2.5-0.3,3.1-0.9c0.7-0.6,1-1.5,1-2.7
		C170,74,169.7,73.1,169,72.5z M168,76.1c-0.1,0.2-0.2,0.4-0.4,0.6c-0.2,0.2-0.4,0.3-0.7,0.3c-0.3,0.1-0.7,0.1-1.1,0.1h-1.5v-3.8
		h1.5c0.4,0,0.8,0,1.1,0.1c0.3,0.1,0.5,0.2,0.7,0.3c0.2,0.1,0.3,0.3,0.4,0.5c0.1,0.2,0.1,0.5,0.1,0.9
		C168.1,75.6,168.1,75.9,168,76.1z"/>
</g>
</svg>
