<?xml version="1.0" encoding="UTF-8"?>
<svg xmlns="http://www.w3.org/2000/svg" xmlns:xlink="http://www.w3.org/1999/xlink" width="48px" height="48px" viewBox="0 0 48 48" version="1.1">
<g id="surface1">
<path style=" stroke:none;fill-rule:nonzero;fill:rgb(0%,0%,0%);fill-opacity:1;" d="M 23.921875 5.792969 C 23.871094 6 23.882812 6.171875 23.949219 6.171875 C 24.011719 6.171875 24.140625 6.652344 24.234375 7.199219 C 24.324219 7.78125 24.425781 8.195312 24.453125 8.089844 C 24.480469 8.023438 24.402344 7.371094 24.257812 6.652344 C 24.105469 5.863281 23.972656 5.519531 23.921875 5.792969 Z M 23.921875 5.792969 "/>
<path style=" stroke:none;fill-rule:nonzero;fill:rgb(0%,0%,0%);fill-opacity:1;" d="M 23.546875 7.679688 C 23.429688 8.332031 23.222656 8.949219 23.066406 9.015625 C 22.832031 9.152344 22.832031 9.1875 23.09375 9.121094 C 23.351562 9.085938 23.960938 7.0625 23.820312 6.6875 C 23.792969 6.582031 23.664062 7.0625 23.546875 7.679688 Z M 23.546875 7.679688 "/>
<path style=" stroke:none;fill-rule:nonzero;fill:rgb(0%,0%,0%);fill-opacity:1;" d="M 23.714844 8.539062 C 23.597656 9.292969 23.441406 9.601562 23.117188 9.769531 L 22.664062 9.976562 L 22.964844 11.074219 C 23.117188 11.65625 23.261719 12.34375 23.273438 12.617188 C 23.3125 13.164062 23.597656 14.125 23.675781 13.921875 C 23.703125 13.851562 23.609375 13.132812 23.457031 12.34375 C 23.09375 10.492188 23.183594 10.25 23.585938 12 C 24.027344 13.851562 24.3125 14.089844 23.960938 12.308594 C 23.546875 10.113281 23.765625 10.355469 24.296875 12.652344 C 24.984375 15.566406 24.996094 15.496094 24.425781 11.828125 C 24.21875 10.457031 24.21875 10.457031 24.464844 11.28125 C 24.738281 12.136719 24.933594 11.828125 24.804688 10.730469 C 24.75 10.25 24.75 10.21875 24.855469 10.59375 C 24.921875 10.835938 25.050781 10.9375 25.128906 10.835938 C 25.386719 10.386719 25.269531 9.976562 24.828125 9.738281 C 24.503906 9.601562 24.335938 9.257812 24.234375 8.539062 C 24.140625 7.988281 24.027344 7.542969 23.972656 7.542969 C 23.921875 7.542969 23.804688 7.988281 23.714844 8.539062 Z M 23.714844 8.539062 "/>
<path style=" stroke:none;fill-rule:nonzero;fill:rgb(0%,0%,0%);fill-opacity:1;" d="M 24.597656 8.984375 C 24.675781 9.1875 24.828125 9.257812 24.957031 9.1875 C 25.140625 9.085938 25.113281 9.015625 24.84375 8.847656 C 24.597656 8.742188 24.519531 8.777344 24.597656 8.984375 Z M 24.597656 8.984375 "/>
<path style=" stroke:none;fill-rule:nonzero;fill:rgb(0%,0%,0%);fill-opacity:1;" d="M 22.160156 9.601562 C 22.160156 9.769531 22.328125 10.421875 22.535156 11.039062 C 22.742188 11.65625 22.9375 12.480469 22.976562 12.855469 L 23.042969 13.542969 L 23.054688 12.855469 C 23.054688 12.480469 22.886719 11.65625 22.679688 11.003906 C 22.378906 10.113281 22.328125 9.769531 22.445312 9.53125 C 22.574219 9.324219 22.546875 9.257812 22.394531 9.257812 C 22.261719 9.257812 22.160156 9.394531 22.160156 9.601562 Z M 22.160156 9.601562 "/>
<path style=" stroke:none;fill-rule:nonzero;fill:rgb(0%,0%,0%);fill-opacity:1;" d="M 25.527344 9.601562 C 25.683594 9.875 25.644531 10.113281 25.296875 11.074219 C 25.074219 11.691406 24.882812 12.308594 24.882812 12.445312 C 24.882812 12.546875 25.113281 12 25.398438 11.175781 C 25.996094 9.460938 26.023438 9.257812 25.632812 9.257812 C 25.398438 9.257812 25.375 9.324219 25.527344 9.601562 Z M 25.527344 9.601562 "/>
<path style=" stroke:none;fill-rule:nonzero;fill:rgb(0%,0%,0%);fill-opacity:1;" d="M 5.195312 12 C 4.652344 12.34375 4.160156 13.269531 3.796875 14.742188 C 3.511719 15.839844 3.5 16.078125 3.5 25.371094 L 3.5 34.867188 L 3.875 36.238281 C 4.613281 38.949219 2.902344 38.742188 23.960938 38.742188 C 39.550781 38.742188 42.84375 38.675781 43.191406 38.261719 C 43.738281 37.679688 44.269531 36 44.449219 34.355469 C 44.617188 32.707031 44.617188 17.691406 44.449219 16.046875 C 44.28125 14.503906 43.464844 12.515625 42.789062 12 C 42.441406 11.761719 39.539062 11.691406 34.003906 11.726562 C 26.746094 11.828125 25.722656 11.898438 25.722656 12.34375 C 25.722656 12.789062 26.800781 12.890625 34.378906 13.027344 L 43.035156 13.199219 L 43.554688 14.640625 L 44.058594 16.078125 L 44.058594 25.132812 C 44.058594 33.976562 44.046875 34.21875 43.761719 35.347656 C 43.605469 36 43.269531 36.789062 43.023438 37.097656 C 42.597656 37.679688 41.417969 37.714844 23.972656 37.714844 L 5.378906 37.714844 L 4.859375 36.925781 C 3.941406 35.554688 3.886719 34.972656 3.886719 25.199219 C 3.886719 17.246094 3.914062 16.558594 4.148438 15.496094 C 4.289062 14.878906 4.585938 14.089844 4.820312 13.714844 C 5.234375 13.0625 5.496094 13.027344 13.773438 13.027344 C 21.835938 13.027344 22.300781 12.996094 22.261719 12.410156 C 22.226562 11.863281 21.71875 11.828125 13.929688 11.761719 C 9.371094 11.761719 5.441406 11.863281 5.195312 12 Z M 5.195312 12 "/>
<path style=" stroke:none;fill-rule:nonzero;fill:rgb(0%,0%,0%);fill-opacity:1;" d="M 25.035156 14.398438 C 25.035156 14.878906 25.0625 15.050781 25.101562 14.8125 C 25.128906 14.605469 25.128906 14.195312 25.101562 13.953125 C 25.0625 13.75 25.035156 13.921875 25.035156 14.398438 Z M 25.035156 14.398438 "/>
<path style=" stroke:none;fill-rule:nonzero;fill:rgb(0%,0%,0%);fill-opacity:1;" d="M 22.808594 15.121094 C 22.808594 15.667969 22.859375 16.078125 22.925781 15.976562 C 23.027344 15.804688 22.964844 14.058594 22.859375 14.058594 C 22.832031 14.058594 22.808594 14.539062 22.808594 15.121094 Z M 22.808594 15.121094 "/>
<path style=" stroke:none;fill-rule:nonzero;fill:rgb(0%,0%,0%);fill-opacity:1;" d="M 23.558594 14.605469 C 23.066406 15.292969 23.105469 15.566406 23.597656 14.914062 C 23.972656 14.398438 24.011719 14.398438 24.582031 15.257812 C 24.90625 15.738281 25.207031 16.046875 25.242188 15.976562 C 25.28125 15.839844 24.050781 14.023438 23.949219 14.058594 C 23.921875 14.089844 23.753906 14.332031 23.558594 14.605469 Z M 23.558594 14.605469 "/>
<path style=" stroke:none;fill-rule:nonzero;fill:rgb(0%,0%,0%);fill-opacity:1;" d="M 7.0625 19.613281 C 6.867188 21.085938 5.832031 31.097656 5.832031 31.441406 C 5.832031 32.023438 6.207031 32.023438 6.285156 31.441406 C 6.3125 31.234375 6.402344 30.378906 6.480469 29.554688 L 6.621094 28.113281 L 8.152344 28.113281 L 8.359375 30 C 8.527344 31.472656 8.628906 31.886719 8.839844 31.886719 C 9.019531 31.886719 9.070312 31.714844 9.019531 31.371094 C 8.980469 31.097656 8.667969 28.21875 8.34375 25.027344 C 7.773438 19.578125 7.710938 19.199219 7.425781 19.199219 C 7.257812 19.199219 7.089844 19.40625 7.0625 19.613281 Z M 8.035156 26.8125 C 8.035156 26.984375 7.75 27.085938 7.386719 27.085938 C 7.035156 27.085938 6.738281 26.984375 6.738281 26.878906 C 6.738281 26.605469 7.257812 21.1875 7.335938 20.570312 C 7.398438 20.160156 8.007812 25.714844 8.035156 26.8125 Z M 8.035156 26.8125 "/>
<path style=" stroke:none;fill-rule:nonzero;fill:rgb(0%,0%,0%);fill-opacity:1;" d="M 10.054688 19.953125 C 9.601562 20.984375 9.523438 22.492188 9.808594 23.964844 C 9.992188 24.855469 10.238281 25.304688 10.871094 26.023438 C 11.832031 27.050781 12.066406 28.046875 11.765625 29.726562 C 11.625 30.515625 11.507812 30.71875 11.042969 30.789062 C 10.394531 30.925781 10.160156 30.515625 10.042969 29.109375 C 9.992188 28.558594 9.875 28.113281 9.769531 28.113281 C 9.472656 28.113281 9.5625 29.691406 9.925781 30.824219 C 10.226562 31.78125 10.339844 31.886719 10.964844 31.886719 C 11.882812 31.886719 12.3125 30.925781 12.3125 28.800781 C 12.3125 26.742188 12.128906 26.089844 11.171875 24.960938 C 10.210938 23.828125 10.109375 23.554688 10.109375 22.25 C 10.109375 20.398438 11.015625 19.542969 11.535156 20.914062 C 11.675781 21.292969 11.792969 21.738281 11.792969 21.941406 C 11.792969 22.113281 11.882812 22.285156 11.988281 22.285156 C 12.234375 22.285156 12.234375 21.839844 11.988281 20.605469 C 11.765625 19.472656 11.558594 19.199219 10.886719 19.199219 C 10.546875 19.199219 10.277344 19.441406 10.054688 19.953125 Z M 10.054688 19.953125 "/>
<path style=" stroke:none;fill-rule:nonzero;fill:rgb(0%,0%,0%);fill-opacity:1;" d="M 12.699219 19.679688 C 12.699219 20.058594 12.882812 20.230469 13.320312 20.296875 L 13.929688 20.398438 L 13.96875 26.125 C 13.996094 30.890625 14.035156 31.886719 14.191406 31.886719 C 14.34375 31.886719 14.382812 30.890625 14.410156 26.125 L 14.449219 20.398438 L 15.070312 20.296875 C 15.5 20.230469 15.679688 20.058594 15.679688 19.679688 C 15.679688 19.304688 15.410156 19.199219 14.191406 19.199219 C 12.972656 19.199219 12.699219 19.304688 12.699219 19.679688 Z M 12.699219 19.679688 "/>
<path style=" stroke:none;fill-rule:nonzero;fill:rgb(0%,0%,0%);fill-opacity:1;" d="M 16.328125 25.542969 C 16.328125 30.855469 16.355469 31.886719 16.523438 31.886719 C 16.664062 31.886719 16.71875 31.269531 16.742188 29.039062 L 16.78125 26.230469 L 17.324219 26.125 C 17.78125 26.023438 17.949219 26.195312 18.207031 26.878906 C 18.402344 27.394531 18.53125 28.113281 18.53125 28.730469 C 18.53125 30.6875 18.6875 31.886719 18.921875 31.886719 C 19.113281 31.886719 19.140625 31.644531 19.101562 30.410156 C 18.972656 27.359375 18.894531 26.742188 18.621094 26.195312 L 18.335938 25.613281 L 18.6875 24.652344 C 19.113281 23.519531 19.179688 21.738281 18.828125 20.605469 C 18.570312 19.75 17.84375 19.234375 16.949219 19.199219 L 16.328125 19.199219 Z M 18.351562 20.949219 C 18.597656 21.496094 18.582031 23.828125 18.324219 24.480469 C 18.195312 24.855469 17.882812 25.027344 17.417969 25.027344 L 16.71875 25.027344 L 16.71875 22.867188 C 16.71875 21.667969 16.757812 20.570312 16.820312 20.433594 C 16.949219 20.058594 18.128906 20.46875 18.351562 20.949219 Z M 18.351562 20.949219 "/>
<path style=" stroke:none;fill-rule:nonzero;fill:rgb(0%,0%,0%);fill-opacity:1;" d="M 21.070312 19.78125 C 20.8125 22.148438 19.828125 31.578125 19.828125 31.714844 C 19.828125 31.816406 19.929688 31.886719 20.058594 31.886719 C 20.253906 31.886719 20.34375 31.441406 20.460938 30 L 20.617188 28.113281 L 22.25 28.113281 L 22.40625 30 C 22.535156 31.472656 22.625 31.886719 22.820312 31.886719 C 22.949219 31.886719 23.066406 31.78125 23.066406 31.679688 C 23.066406 31.507812 22.042969 21.738281 21.824219 19.78125 C 21.785156 19.441406 21.628906 19.199219 21.445312 19.199219 C 21.265625 19.199219 21.109375 19.441406 21.070312 19.78125 Z M 21.757812 23.210938 C 22.148438 27.152344 22.148438 27.085938 21.371094 27.085938 C 20.8125 27.085938 20.722656 27.015625 20.785156 26.46875 C 20.929688 25.269531 21.382812 20.742188 21.382812 20.433594 C 21.382812 19.679688 21.511719 20.570312 21.757812 23.210938 Z M 21.757812 23.210938 "/>
<path style=" stroke:none;fill-rule:nonzero;fill:rgb(0%,0%,0%);fill-opacity:1;" d="M 25.660156 25.542969 L 25.660156 31.921875 L 26.851562 31.816406 C 27.65625 31.75 28.054688 31.578125 28.09375 31.269531 C 28.132812 30.960938 27.886719 30.855469 27.160156 30.855469 L 26.175781 30.855469 L 26.152344 25.132812 C 26.113281 19.953125 26.085938 19.371094 25.890625 19.269531 C 25.671875 19.164062 25.660156 19.644531 25.660156 25.542969 Z M 25.660156 25.542969 "/>
<path style=" stroke:none;fill-rule:nonzero;fill:rgb(0%,0%,0%);fill-opacity:1;" d="M 28.769531 25.507812 C 28.769531 31.679688 28.78125 31.886719 29.027344 31.886719 C 29.289062 31.886719 29.289062 31.714844 29.261719 25.644531 C 29.222656 19.988281 29.195312 19.371094 29.003906 19.269531 C 28.78125 19.164062 28.769531 19.644531 28.769531 25.507812 Z M 28.769531 25.507812 "/>
<path style=" stroke:none;fill-rule:nonzero;fill:rgb(0%,0%,0%);fill-opacity:1;" d="M 30.324219 25.542969 C 30.324219 30.960938 30.351562 31.886719 30.519531 31.886719 C 30.6875 31.886719 30.710938 30.996094 30.710938 25.78125 L 30.710938 19.714844 L 31.4375 25.199219 C 31.839844 28.21875 32.191406 30.960938 32.230469 31.269531 C 32.28125 31.679688 32.421875 31.886719 32.667969 31.886719 L 33.046875 31.886719 L 33.046875 25.542969 C 33.046875 20.125 33.019531 19.199219 32.851562 19.199219 C 32.683594 19.199219 32.65625 20.089844 32.644531 25.097656 C 32.644531 28.9375 32.589844 30.789062 32.527344 30.34375 C 32.460938 29.964844 32.097656 27.292969 31.738281 24.410156 C 31.074219 19.335938 31.050781 19.199219 30.6875 19.199219 L 30.324219 19.199219 Z M 30.324219 25.542969 "/>
<path style=" stroke:none;fill-rule:nonzero;fill:rgb(0%,0%,0%);fill-opacity:1;" d="M 34.210938 24.824219 L 34.210938 30.480469 L 34.546875 31.164062 C 34.792969 31.679688 35.078125 31.886719 35.558594 31.886719 C 36.789062 31.851562 36.933594 31.0625 36.933594 24.378906 C 36.933594 19.988281 36.90625 19.199219 36.738281 19.199219 C 36.570312 19.199219 36.542969 19.921875 36.542969 23.589844 C 36.542969 28.011719 36.425781 30.070312 36.128906 30.582031 C 36.039062 30.71875 35.742188 30.855469 35.480469 30.855469 C 34.691406 30.855469 34.601562 30.171875 34.601562 24.273438 C 34.601562 19.988281 34.574219 19.199219 34.40625 19.199219 C 34.238281 19.199219 34.210938 20.058594 34.210938 24.824219 Z M 34.210938 24.824219 "/>
<path style=" stroke:none;fill-rule:nonzero;fill:rgb(0%,0%,0%);fill-opacity:1;" d="M 37.75 19.441406 C 37.773438 19.613281 38.074219 20.984375 38.410156 22.527344 L 39.007812 25.335938 L 38.359375 28.492188 C 37.996094 30.238281 37.710938 31.714844 37.710938 31.78125 C 37.710938 31.816406 37.8125 31.886719 37.945312 31.886719 C 38.085938 31.886719 38.34375 30.996094 38.683594 29.3125 C 38.96875 27.910156 39.226562 26.742188 39.265625 26.742188 C 39.304688 26.742188 39.550781 27.910156 39.824219 29.3125 C 40.1875 31.304688 40.367188 31.886719 40.574219 31.886719 C 40.820312 31.886719 40.78125 31.613281 40.171875 28.628906 L 39.511719 25.371094 L 40.109375 22.59375 C 40.742188 19.578125 40.78125 19.199219 40.496094 19.199219 C 40.394531 19.199219 40.082031 20.261719 39.824219 21.601562 C 39.550781 22.902344 39.304688 24 39.265625 24 C 39.226562 24 38.96875 22.902344 38.695312 21.601562 C 38.34375 19.851562 38.136719 19.199219 37.957031 19.199219 C 37.8125 19.199219 37.722656 19.304688 37.75 19.441406 Z M 37.75 19.441406 "/>
</g>
</svg>
