<?xml version="1.0" encoding="utf-8"?>
<!-- Generator: Adobe Illustrator 28.0.0, SVG Export Plug-In . SVG Version: 6.00 Build 0)  -->
<svg version="1.1" id="_Слой_2" xmlns="http://www.w3.org/2000/svg" xmlns:xlink="http://www.w3.org/1999/xlink" x="0px"
	 y="0px" viewBox="0 0 253.8 82.9" style="enable-background:new 0 0 253.8 82.9;" xml:space="preserve">
<style type="text/css">
	.st0{fill:#0079C0;}
</style>
<g id="Layer_1">
	<g>
		<path class="st0" d="M14.3,62.3h3.6l2.2-8.4h9.2l2.4,8.4h3.6L27,33h-4.3L14.3,62.3z M24.7,35.4L28.5,51h-7.7L24.7,35.4
			C24.6,35.4,24.7,35.4,24.7,35.4z"/>
		<path class="st0" d="M37.7,53c0,6.3,3.1,10,8.7,10s9-2.8,9-8.3c0-3.9-1.9-6.6-6.6-8.4l-4.7-1.8c-1.9-0.7-2.6-1.9-2.6-4.6
			c0-2.4,1.2-4.6,4.8-4.6c3.3,0,4.8,2.1,4.8,5.3h3.3c-0.2-5.4-3.3-8.3-8.3-8.3c-4.8,0-8,2.9-8,7.6s2,6.7,4.7,7.7l4.3,1.6
			c3,1.1,4.8,2.1,4.8,5.9c0,3.5-2.3,4.9-5.6,4.9c-4.3,0-5.5-2.7-5.5-7v0L37.7,53L37.7,53z"/>
		<polygon class="st0" points="75.6,33 57.2,33 57.2,36 64.8,36 64.8,62.3 68,62.3 68,36 75.6,36 		"/>
		<path class="st0" d="M94.1,62.3h3.3v-0.7c-0.4-0.9-1-1.1-1-7.2c0-3.6-1.9-6.3-5-6.6v-0.1c3.4-0.5,5.3-3.4,5.3-6.8
			c0-5.5-3.4-8-8.5-8h-8.9v29.3h3.3V49.4h5.3c3.6,0,5.3,2.2,5.3,6.1C93.2,58.7,93.4,60.4,94.1,62.3L94.1,62.3z M82.5,46.5V36h5.5
			c2.8,0,5.3,0.9,5.3,5.2s-2.8,5.3-5.1,5.3L82.5,46.5L82.5,46.5z"/>
		<path class="st0" d="M121.7,62.3L113.4,33h-4.3l-8.3,29.3h3.6l2.2-8.4h9.2l2.3,8.4H121.7L121.7,62.3z M107.3,51l3.9-15.6h0.1
			L115,51C115,51,107.3,51,107.3,51z"/>
		<polygon class="st0" points="140.2,33 137,33 137,62.3 152.2,62.3 152.2,59.4 140.2,59.4 		"/>
		<rect x="156.2" y="33" class="st0" width="3.3" height="29.3"/>
		<path class="st0" d="M179,57l-8.3-24h-5.3v29.3h3.3V39c0-1.5,0-3-0.1-4.5h0.1c0.2,1.5,0.6,3,1.1,4.4l8.2,23.5h5.4V33H180V57
			c0,1.1,0.1,2.2,0.1,3.3H180C179.6,58.9,179.4,58,179,57L179,57z"/>
		<path class="st0" d="M189.2,33v22.3c0,5.2,3.5,7.7,8.8,7.7s8.8-2.5,8.8-7.7V33h-3.3v21.1c0,2.3-0.3,6-5.5,6s-5.5-3.7-5.5-6V33
			L189.2,33L189.2,33z"/>
		<polygon class="st0" points="214.6,62.3 220.9,50.1 227.2,62.3 230.9,62.3 222.9,47.3 230.7,33 227.1,33 220.9,44.5 214.8,33 
			211.2,33 219.1,47.3 211,62.3 		"/>
		<path class="st0" d="M239.3,15.4H138.5c-0.9,0-1.6,0.7-1.6,1.6s0.7,1.6,1.6,1.6h100.9c6.2,0,11.2,5,11.2,11.2v34.5
			c0,6.2-5,11.2-11.2,11.2h-69.9c-0.9-0.1-1.7,0.7-1.7,1.6s0.6,1.7,1.6,1.7c0.1,0,0.1,0,0.2,0h69.9c8,0,14.5-6.5,14.5-14.5V29.9
			C253.8,21.9,247.3,15.4,239.3,15.4L239.3,15.4z"/>
		<path class="st0" d="M84.3,75.6H14.5c-6.2,0-11.2-5-11.2-11.2V29.9c0-6.2,5-11.2,11.2-11.2h100.9c0.9,0,1.6-0.7,1.6-1.6
			s-0.7-1.6-1.6-1.6H14.5C6.5,15.4,0,21.9,0,29.9v34.6c0,8,6.5,14.5,14.5,14.5h69.8c0.9,0,1.6-0.7,1.6-1.6S85.2,75.6,84.3,75.6
			L84.3,75.6z"/>
		<path class="st0" d="M133.4,16.8l5-5.4l1.1-1.2L131,8.6l-3.3-6.9L126.9,0l-4.1,8.6l-8.6,1.5l6.2,6.7l-1.4,9.5l7.9-4.4l7.9,4.4
			L133.4,16.8L133.4,16.8z M120.3,24.2l1.2-7.9l-5.1-5.6l7.2-1.2l3.4-7.1l3.4,7.1l7.2,1.2l-5.1,5.6l1.2,7.9l-6.6-3.6L120.3,24.2
			L120.3,24.2z"/>
		<polygon class="st0" points="132.5,22.8 132.3,21.8 127.9,11.4 131.7,17.5 131.5,16.1 132.7,14.8 131.1,11 133.1,14.4 135.9,11.3 
			129.8,10.2 126.9,4.2 124.1,10.2 117.9,11.3 122.3,16.1 122.1,17.8 124.4,21.1 125.5,20.5 121.5,12.3 126.7,19.8 126.9,19.7 
			128.7,20.7 124.7,11.9 131.6,22.3 		"/>
		<polygon class="st0" points="121.3,22.8 123,21.9 121.8,19.5 		"/>
		<path class="st0" d="M98.2,77.6c-0.2-0.3-0.5-0.5-0.8-0.7s-0.8-0.4-1.2-0.6l-0.4-0.2c-0.4-0.2-0.8-0.3-1.1-0.5
			c-0.3-0.1-0.5-0.3-0.6-0.4c-0.1-0.1-0.2-0.2-0.3-0.4c-0.1-0.1-0.1-0.3-0.1-0.5c0-0.5,0.2-1.2,1.9-1.2c0.4,0,0.9,0,1.3,0.1
			c0.4,0.1,0.8,0.2,1.1,0.3l0.3,0.1v-1.8L98,71.9c-0.3-0.1-0.7-0.2-1.1-0.3s-0.9-0.1-1.3-0.1c-1.2,0-2.1,0.3-2.8,0.8
			c-0.7,0.5-1.1,1.3-1.1,2.2c0,0.4,0.1,0.8,0.2,1.2c0.1,0.3,0.3,0.6,0.5,0.9c0.2,0.2,0.5,0.5,0.8,0.7c0.3,0.2,0.7,0.3,1.1,0.5
			l0.4,0.1c0.4,0.1,0.7,0.3,1,0.4c0.3,0.1,0.5,0.2,0.7,0.4c0.2,0.1,0.3,0.3,0.3,0.5c0.1,0.2,0.1,0.4,0.1,0.7c0,0.5-0.2,0.9-0.5,1.1
			c-0.3,0.3-0.9,0.4-1.6,0.4c-0.3,0-0.5,0-0.8-0.1S93.4,81,93.2,81s-0.4-0.2-0.6-0.2s-0.3-0.2-0.5-0.2l-0.3-0.2v1.9l0.1,0.1
			c0.4,0.2,0.8,0.4,1.3,0.5s1.1,0.2,1.6,0.2s1.1-0.1,1.6-0.2c0.5-0.2,0.9-0.4,1.2-0.6c0.3-0.3,0.6-0.7,0.8-1.1
			c0.2-0.4,0.3-0.9,0.3-1.4c0-0.4-0.1-0.7-0.1-1C98.6,78.2,98.4,77.9,98.2,77.6L98.2,77.6z"/>
		<polygon class="st0" points="104.1,71.6 103.9,71.6 103.9,71.8 103.9,82.5 103.9,82.7 104.1,82.7 110.5,82.7 110.7,82.7 
			110.7,82.5 110.7,81.2 110.7,81 110.5,81 105.8,81 105.8,77.8 110,77.8 110.2,77.8 110.2,77.6 110.2,76.4 110.2,76.1 110,76.1 
			105.8,76.1 105.8,73.3 110.5,73.3 110.7,73.3 110.7,73.1 110.7,71.8 110.7,71.6 110.5,71.6 		"/>
		<path class="st0" d="M121.1,77.8c0.7-0.2,1.2-0.6,1.6-1c0.4-0.5,0.6-1.2,0.6-2.1c0-0.9-0.3-1.7-0.9-2.2c-0.6-0.5-1.6-0.8-2.8-0.8
			h-3.6v11.2h1.9V78h1.3l2.9,4.6l0.1,0.1h2.1l-0.2-0.3L121.1,77.8L121.1,77.8z M119.6,76.3h-1.8v-3h1.6c0.7,0,1.2,0.1,1.5,0.4
			c0.3,0.2,0.4,0.6,0.4,1.1c0,0.6-0.1,1-0.4,1.2C120.6,76.2,120.2,76.3,119.6,76.3L119.6,76.3z"/>
		<polygon class="st0" points="132.4,80.6 129.3,71.6 127.3,71.6 131.4,82.7 133.4,82.7 137.5,71.6 135.6,71.6 		"/>
		<polygon class="st0" points="141.8,82.7 148.6,82.7 148.6,81 143.7,81 143.7,77.8 148.2,77.8 148.2,76.1 143.7,76.1 143.7,73.3 
			148.6,73.3 148.6,71.6 141.8,71.6 		"/>
		<path class="st0" d="M160.6,76.7c0.4-0.5,0.6-1.2,0.6-2.1c0-0.9-0.3-1.7-0.9-2.2c-0.6-0.5-1.6-0.8-2.9-0.8h-3.6v11.2h1.9V78h1.3
			l3,4.7h2.1l-3.1-5C159.7,77.6,160.2,77.2,160.6,76.7L160.6,76.7z M157.5,76.3h-1.8v-3h1.6c0.7,0,1.2,0.1,1.5,0.4
			c0.3,0.2,0.4,0.6,0.4,1.1c0,0.6-0.1,1-0.4,1.2C158.5,76.2,158.1,76.3,157.5,76.3L157.5,76.3z"/>
	</g>
</g>
</svg>
