<?xml version="1.0" encoding="UTF-8"?>
<svg id="_Слой_2" data-name="Слой 2" xmlns="http://www.w3.org/2000/svg" xmlns:xlink="http://www.w3.org/1999/xlink" viewBox="0 0 152.4 152.4">
  <defs>
    <style>
      .cls-1 {
        fill: #cc3b03;
      }

      .cls-2 {
        fill: #fff;
      }

      .cls-3 {
        fill: url(#linear-gradient);
      }
    </style>
    <linearGradient id="linear-gradient" x1="134.71" y1=".33" x2="53.33" y2="81.71" gradientTransform="translate(0 128.48) scale(1 -1)" gradientUnits="userSpaceOnUse">
      <stop offset="0" stop-color="#cc3b03" stop-opacity="0"/>
      <stop offset="1" stop-color="#820000"/>
    </linearGradient>
  </defs>
  <g id="_Слой_1-2" data-name="Слой 1">
    <g>
      <path class="cls-1" d="m152.4,76.2c0,39.08-29.41,71.27-67.3,75.68-2.92.35-5.89.52-8.9.52C34.12,152.4,0,118.28,0,76.2S34.12,0,76.2,0s74.12,32.08,76.1,72.38c.07,1.27.1,2.54.1,3.82Z"/>
      <path class="cls-3" d="m152.4,76.2c0,39.08-29.41,71.27-67.3,75.68l-39.38-39.38-.36-14.67-11.91-11.91,9.66-4.28,2.6-13.07-5.08-5.08,16.85-18.57-2.75-2.49,6.71-1.87,2.15-2.37,1.54,1.34,11.06-3.08,41.92,1.74,34.18,34.18c.07,1.27.1,2.54.1,3.82Z"/>
      <path class="cls-2" d="m106.68,33.02h-35.56c-16.84,0-30.48,13.64-30.48,30.48h10.16c0-11.23,9.09-20.32,20.32-20.32.28,0,.58.01.86.02.11,0,.21.01.33.02h34.37c2.78,0,5.04,2.26,5.04,5.04,0,0,.04,9.45.04,10.2,0,.68-.04,1.36-.1,2.03,0,.03,0,.05-.01.08-1.06,10.23-9.69,18.21-20.21,18.21h-25.4v10.16h25.4c6.65,0,12.81-2.14,17.82-5.76,0,.01.01.02.01.02,6.07-4.38,10.45-10.94,12.01-18.54.01-.03.01-.05.02-.08.08-.42.16-.84.22-1.27.02-.13.04-.26.06-.4.06-.39.1-.77.15-1.17.02-.18.03-.37.05-.55.03-.37.06-.72.08-1.09.01-.24.02-.5.02-.74.01-.28.03-.58.03-.86v-10.24c0-8.41-6.83-15.24-15.24-15.24Z"/>
      <path class="cls-2" d="m60.96,73.7c2.83,0,5.12-2.29,5.12-5.12s-2.29-5.12-5.12-5.12-5.12,2.29-5.12,5.12,2.29,5.12,5.12,5.12Z"/>
      <path class="cls-2" d="m45.72,68.58h-5.08v10.16h-10.16c0,2.8,1.14,5.34,2.98,7.18,1.84,1.84,4.38,2.98,7.18,2.98v10.16c0,11.23,9.09,20.32,20.32,20.32v-10.16c-5.62,0-10.16-4.55-10.16-10.16v-10.16h10.16v-5.08c-8.41,0-15.24-6.83-15.24-15.24Z"/>
    </g>
  </g>
</svg>