<?xml version="1.0" encoding="UTF-8"?> <svg xmlns="http://www.w3.org/2000/svg" width="84" height="33" viewBox="0 0 84 33" fill="none"><path d="M52.7481 13.5818H48.8408V25.2288C48.8408 29.5202 52.3365 32.9936 56.6554 32.9936V29.1177C54.4927 29.1177 52.7481 27.3778 52.7481 25.2353V21.353H56.6554V17.4706H52.7481V13.5818Z" fill="#CC3B03"></path><path d="M66.4171 17.4641C62.0982 17.4641 58.6025 20.9375 58.6025 25.2288C58.6025 29.5202 62.1047 32.9935 66.4171 32.9935C70.736 32.9935 74.2317 29.5202 74.2317 25.2288C74.2317 20.9375 70.736 17.4641 66.4171 17.4641ZM66.4171 29.1112C64.2609 29.1112 62.5098 27.3713 62.5098 25.2288C62.5098 23.0864 64.2609 21.3465 66.4171 21.3465C68.5733 21.3465 70.3244 23.0864 70.3244 25.2288C70.3244 27.3713 68.5733 29.1112 66.4171 29.1112Z" fill="#CC3B03"></path><path d="M76.1855 25.2288V32.9935H80.0928V25.2288C80.0928 23.0864 81.8374 21.3465 84.0001 21.3465V17.4641C79.6877 17.4706 76.1855 20.9439 76.1855 25.2288Z" fill="#CC3B03"></path><path d="M21.4899 17.4641C17.1709 17.4641 13.6753 20.9375 13.6753 25.2288C13.6753 29.5202 17.1709 32.9935 21.4899 32.9935C22.9142 32.9935 24.2472 32.6105 25.3971 31.9483V32.9935H29.3044V25.2288C29.3044 20.9439 25.8088 17.4641 21.4899 17.4641ZM21.4899 29.1112C19.3337 29.1112 17.5826 27.3713 17.5826 25.2288C17.5826 23.0864 19.3337 21.3465 21.4899 21.3465C23.646 21.3465 25.3971 23.0864 25.3971 25.2288C25.3971 27.3713 23.646 29.1112 21.4899 29.1112Z" fill="#CC3B03"></path><path d="M39.0729 17.4706C34.7539 17.4706 31.2583 20.9439 31.2583 25.2353V32.9935H35.1656V25.2288C35.1656 23.0864 36.9101 21.3464 39.0729 21.3464C41.2291 21.3464 42.9801 23.0864 42.9801 25.2288V32.9935H46.8874V25.2288C46.8874 20.9439 43.3852 17.4706 39.0729 17.4706Z" fill="#CC3B03"></path><path d="M5.86092 13.5883H3.90728V17.4706H0C0 18.5418 0.437772 19.5157 1.14344 20.2168C1.8491 20.918 2.82919 21.353 3.90728 21.353V25.2353C3.90728 29.5267 7.40292 33 11.7218 33V29.1177C9.55912 29.1177 7.81456 27.3778 7.81456 25.2353V21.353H11.7218V19.4118C8.48755 19.4118 5.86092 16.8019 5.86092 13.5883Z" fill="#CC3B03"></path><path d="M11.7221 11.6276C10.6374 11.6276 9.75537 12.504 9.75537 13.5817C9.75537 14.6659 10.6374 15.5359 11.7221 15.5359C12.8067 15.5359 13.6888 14.6594 13.6888 13.5817C13.6953 12.504 12.8132 11.6276 11.7221 11.6276Z" fill="#EC6626"></path><path d="M35.1655 5.82353V9.73185C35.1655 9.84222 35.1589 9.95259 35.1589 10.063C35.1524 10.1538 35.1524 10.2512 35.1459 10.3486C35.1393 10.4914 35.1263 10.6278 35.1132 10.7706C35.1067 10.842 35.1001 10.9134 35.0936 10.9784C35.0805 11.1277 35.0609 11.277 35.0413 11.4263C35.0348 11.4783 35.0283 11.5237 35.0152 11.5756C34.9891 11.738 34.9629 11.9003 34.9237 12.0626C34.9237 12.0691 34.9172 12.082 34.9172 12.095C34.3161 14.997 32.6303 17.5095 30.2977 19.178C30.2977 19.1716 30.2912 19.1716 30.2912 19.1651C30.0363 19.3468 29.7685 19.5221 29.5006 19.6909C28.7034 18.5483 27.6711 17.5939 26.4623 16.8863C29.0432 15.8151 30.9184 13.4065 31.2125 10.5304C31.2125 10.5174 31.219 10.5109 31.219 10.4979C31.2451 10.2447 31.2582 9.98505 31.2582 9.71887C31.2582 9.43321 31.2451 5.82353 31.2451 5.82353C31.2451 4.7588 30.3761 3.89534 29.3046 3.89534H16.0864C16.0407 3.88884 16.0015 3.88884 15.9623 3.88884C15.8512 3.88235 15.7401 3.88235 15.6291 3.88235C11.3102 3.88235 7.81451 7.3557 7.81451 11.6471H3.90723C3.90723 5.21326 9.15396 0 15.6291 0H29.3046C32.5388 0 35.1655 2.60988 35.1655 5.82353Z" fill="#EC6626"></path></svg> 