<?xml version="1.0" encoding="UTF-8"?>
<svg xmlns="http://www.w3.org/2000/svg" xmlns:xlink="http://www.w3.org/1999/xlink" width="48px" height="48px" viewBox="0 0 48 48" version="1.1">
<g id="surface1">
<path style=" stroke:none;fill-rule:nonzero;fill:rgb(80.000001%,23.137255%,1.176471%);fill-opacity:1;" d="M 30.140625 19.753906 L 27.910156 19.753906 L 27.910156 36.695312 C 27.910156 42.9375 29.90625 47.992188 32.375 47.992188 L 32.375 42.351562 C 31.140625 42.351562 30.140625 39.820312 30.140625 36.707031 L 30.140625 31.058594 L 32.375 31.058594 L 32.375 25.410156 L 30.140625 25.410156 Z M 30.140625 19.753906 "/>
<path style=" stroke:none;fill-rule:nonzero;fill:rgb(80.000001%,23.137255%,1.176471%);fill-opacity:1;" d="M 37.953125 25.402344 C 35.484375 25.402344 33.488281 30.453125 33.488281 36.695312 C 33.488281 42.9375 35.488281 47.992188 37.953125 47.992188 C 40.421875 47.992188 42.417969 42.9375 42.417969 36.695312 C 42.417969 30.453125 40.421875 25.402344 37.953125 25.402344 Z M 37.953125 42.34375 C 36.71875 42.34375 35.71875 39.8125 35.71875 36.695312 C 35.71875 33.582031 36.71875 31.050781 37.953125 31.050781 C 39.183594 31.050781 40.183594 33.582031 40.183594 36.695312 C 40.183594 39.8125 39.183594 42.34375 37.953125 42.34375 Z M 37.953125 42.34375 "/>
<path style=" stroke:none;fill-rule:nonzero;fill:rgb(80.000001%,23.137255%,1.176471%);fill-opacity:1;" d="M 43.535156 36.695312 L 43.535156 47.992188 L 45.765625 47.992188 L 45.765625 36.695312 C 45.765625 33.582031 46.765625 31.050781 48 31.050781 L 48 25.402344 C 45.535156 25.410156 43.535156 30.464844 43.535156 36.695312 Z M 43.535156 36.695312 "/>
<path style=" stroke:none;fill-rule:nonzero;fill:rgb(80.000001%,23.137255%,1.176471%);fill-opacity:1;" d="M 12.28125 25.402344 C 9.8125 25.402344 7.816406 30.453125 7.816406 36.695312 C 7.816406 42.9375 9.8125 47.992188 12.28125 47.992188 C 13.09375 47.992188 13.855469 47.433594 14.511719 46.46875 L 14.511719 47.992188 L 16.746094 47.992188 L 16.746094 36.695312 C 16.746094 30.464844 14.746094 25.402344 12.28125 25.402344 Z M 12.28125 42.34375 C 11.046875 42.34375 10.046875 39.8125 10.046875 36.695312 C 10.046875 33.582031 11.046875 31.050781 12.28125 31.050781 C 13.511719 31.050781 14.511719 33.582031 14.511719 36.695312 C 14.511719 39.8125 13.511719 42.34375 12.28125 42.34375 Z M 12.28125 42.34375 "/>
<path style=" stroke:none;fill-rule:nonzero;fill:rgb(80.000001%,23.137255%,1.176471%);fill-opacity:1;" d="M 22.328125 25.410156 C 19.859375 25.410156 17.863281 30.464844 17.863281 36.707031 L 17.863281 47.992188 L 20.09375 47.992188 L 20.09375 36.695312 C 20.09375 33.582031 21.089844 31.050781 22.328125 31.050781 C 23.558594 31.050781 24.558594 33.582031 24.558594 36.695312 L 24.558594 47.992188 L 26.792969 47.992188 L 26.792969 36.695312 C 26.792969 30.464844 24.792969 25.410156 22.328125 25.410156 Z M 22.328125 25.410156 "/>
<path style=" stroke:none;fill-rule:nonzero;fill:rgb(80.000001%,23.137255%,1.176471%);fill-opacity:1;" d="M 3.347656 19.765625 L 2.234375 19.765625 L 2.234375 25.410156 L 0 25.410156 C 0 26.96875 0.25 28.386719 0.652344 29.40625 C 1.054688 30.425781 1.617188 31.058594 2.234375 31.058594 L 2.234375 36.707031 C 2.234375 42.949219 4.230469 48 6.699219 48 L 6.699219 42.351562 C 5.460938 42.351562 4.464844 39.820312 4.464844 36.707031 L 4.464844 31.058594 L 6.699219 31.058594 L 6.699219 28.234375 C 4.851562 28.234375 3.347656 24.4375 3.347656 19.765625 Z M 3.347656 19.765625 "/>
<path style=" stroke:none;fill-rule:nonzero;fill:rgb(92.54902%,40.000001%,14.901961%);fill-opacity:1;" d="M 6.699219 16.914062 C 6.078125 16.914062 5.574219 18.1875 5.574219 19.753906 C 5.574219 21.332031 6.078125 22.597656 6.699219 22.597656 C 7.316406 22.597656 7.820312 21.324219 7.820312 19.753906 C 7.824219 18.1875 7.320312 16.914062 6.699219 16.914062 Z M 6.699219 16.914062 "/>
<path style=" stroke:none;fill-rule:nonzero;fill:rgb(92.54902%,40.000001%,14.901961%);fill-opacity:1;" d="M 20.09375 8.46875 L 20.09375 14.15625 C 20.09375 14.316406 20.089844 14.476562 20.089844 14.636719 C 20.085938 14.769531 20.085938 14.910156 20.082031 15.050781 C 20.078125 15.261719 20.070312 15.457031 20.066406 15.667969 C 20.0625 15.769531 20.058594 15.875 20.054688 15.96875 C 20.046875 16.1875 20.035156 16.402344 20.023438 16.621094 C 20.019531 16.695312 20.015625 16.761719 20.007812 16.835938 C 19.992188 17.074219 19.980469 17.308594 19.957031 17.546875 C 19.957031 17.554688 19.953125 17.574219 19.953125 17.59375 C 19.609375 21.8125 18.644531 25.46875 17.3125 27.894531 C 17.3125 27.886719 17.308594 27.886719 17.308594 27.875 C 17.164062 28.140625 17.011719 28.394531 16.859375 28.640625 C 16.402344 26.980469 15.8125 25.589844 15.121094 24.5625 C 16.597656 23.003906 17.667969 19.5 17.835938 15.316406 C 17.835938 15.296875 17.839844 15.289062 17.839844 15.269531 C 17.855469 14.902344 17.863281 14.523438 17.863281 14.136719 C 17.863281 13.722656 17.855469 8.46875 17.855469 8.46875 C 17.855469 6.921875 17.359375 5.664062 16.746094 5.664062 L 9.191406 5.664062 C 9.167969 5.65625 9.144531 5.65625 9.121094 5.65625 C 9.058594 5.648438 8.996094 5.648438 8.929688 5.648438 C 6.464844 5.648438 4.464844 10.699219 4.464844 16.941406 L 2.234375 16.941406 C 2.234375 7.582031 5.230469 0 8.929688 0 L 16.746094 0 C 18.59375 0 20.09375 3.796875 20.09375 8.46875 Z M 20.09375 8.46875 "/>
</g>
</svg>
