<?xml version="1.0" encoding="UTF-8"?>
<svg id="_Слой_2" data-name="Слой 2" xmlns="http://www.w3.org/2000/svg" viewBox="0 0 332.65 131.52">
  <defs>
    <style>
      .cls-1 {
        fill: #cc3b03;
      }

      .cls-2 {
        fill: #ec6626;
      }
    </style>
  </defs>
  <g id="_Слой_1-2" data-name="Слой 1">
    <g>
      <path class="cls-1" d="m208.87,54.14h-15.47v46.42c0,17.1,13.85,30.94,30.94,30.94v-15.46c-8.56,0-15.47-6.93-15.47-15.47v-15.47h15.47v-15.47h-15.47v-15.49Z"/>
      <path class="cls-1" d="m263.02,69.61c-17.1,0-30.94,13.85-30.94,30.94s13.85,30.94,30.94,30.94,30.94-13.85,30.94-30.94-13.85-30.94-30.94-30.94Zm0,46.42c-8.54,0-15.47-6.93-15.47-15.47s6.93-15.47,15.47-15.47,15.47,6.93,15.47,15.47-6.93,15.47-15.47,15.47Z"/>
      <path class="cls-1" d="m301.71,100.57v30.94h15.47v-30.94c0-8.54,6.92-15.47,15.47-15.47v-15.47c-17.1,0-30.94,13.85-30.94,30.94Z"/>
      <path class="cls-1" d="m85.1,69.61c-17.1,0-30.94,13.85-30.94,30.94s13.85,30.94,30.94,30.94c5.65,0,10.92-1.53,15.47-4.18v4.18h15.47v-30.94c0-17.08-13.85-30.94-30.94-30.94Zm0,46.42c-8.54,0-15.47-6.93-15.47-15.47s6.93-15.47,15.47-15.47,15.47,6.93,15.47,15.47-6.93,15.47-15.47,15.47Z"/>
      <path class="cls-1" d="m154.72,69.62c-17.1,0-30.94,13.85-30.94,30.94v30.94h15.47v-30.94c0-8.54,6.92-15.47,15.47-15.47s15.47,6.93,15.47,15.47v30.94h15.47v-30.94c0-17.1-13.86-30.94-30.94-30.94Z"/>
      <path class="cls-1" d="m23.21,54.15h-7.74v15.47H0c0,4.27,1.73,8.14,4.53,10.94,2.8,2.8,6.67,4.53,10.94,4.53v15.47c0,17.1,13.85,30.94,30.94,30.94v-15.47c-8.56,0-15.47-6.93-15.47-15.47v-15.47h15.47v-7.74c-12.81,0-23.21-10.4-23.21-23.21Z"/>
      <path class="cls-2" d="m46.42,46.35c-4.3,0-7.8,3.48-7.8,7.8s3.48,7.8,7.8,7.8,7.8-3.48,7.8-7.8-3.5-7.8-7.8-7.8Z"/>
      <path class="cls-2" d="m139.25,23.21v15.58c0,.43-.03.88-.03,1.32-.02.37-.02.76-.05,1.13-.03.56-.08,1.11-.12,1.67-.02.28-.05.56-.08.84-.06.59-.14,1.19-.22,1.78-.03.2-.06.39-.09.59-.11.65-.22,1.3-.36,1.95,0,.03-.02.08-.02.12-2.38,11.57-9.05,21.57-18.3,28.24,0-.02-.02-.03-.02-.05-1.02.73-2.07,1.42-3.14,2.09-3.16-4.55-7.26-8.37-12.04-11.19,10.21-4.27,17.64-13.88,18.81-25.33,0-.05.02-.08.02-.12.09-1.02.15-2.04.15-3.09,0-1.13-.06-15.52-.06-15.52,0-4.24-3.43-7.67-7.67-7.67h-52.34c-.17-.02-.32-.03-.5-.03-.43-.02-.88-.03-1.32-.03-17.1,0-30.94,13.85-30.94,30.94h-15.47C15.47,20.78,36.25,0,61.89,0h54.15c12.81,0,23.21,10.4,23.21,23.21Z"/>
    </g>
  </g>
</svg>